<?xml version="1.0" encoding="UTF-8"?>
<svg xmlns="http://www.w3.org/2000/svg" width="495" height="280" viewBox="0 0 495 280">
  <defs>
    <linearGradient id="bg" x1="0" y1="0" x2="1" y2="1">
      <stop offset="0%" stop-color="#1a1b27"/>
      <stop offset="100%" stop-color="#16161e"/>
    </linearGradient>
  </defs>
  <rect width="495" height="280" rx="12" fill="url(#bg)" stroke="#414868"/>
  <text x="24" y="34" fill="#7aa2f7" font-size="13" font-family="Consolas, monospace">mxuexxmy@github</text>
  <text x="24" y="54" fill="#c0caf5" font-size="18" font-weight="700" font-family="Segoe UI, sans-serif">Profile Metrics</text>
  
      <rect x="24" y="72" width="146" height="72" rx="10" fill="#24283b" stroke="#414868"/>
      <text x="40" y="98" fill="#565f89" font-size="11" font-family="Segoe UI, sans-serif">Public Repos</text>
      <text x="40" y="126" fill="#c0caf5" font-size="24" font-weight="700" font-family="Consolas, monospace">669</text>
      <rect x="182" y="72" width="146" height="72" rx="10" fill="#24283b" stroke="#414868"/>
      <text x="198" y="98" fill="#565f89" font-size="11" font-family="Segoe UI, sans-serif">Total Stars</text>
      <text x="198" y="126" fill="#c0caf5" font-size="24" font-weight="700" font-family="Consolas, monospace">73</text>
      <rect x="340" y="72" width="146" height="72" rx="10" fill="#24283b" stroke="#414868"/>
      <text x="356" y="98" fill="#565f89" font-size="11" font-family="Segoe UI, sans-serif">Followers</text>
      <text x="356" y="126" fill="#c0caf5" font-size="24" font-weight="700" font-family="Consolas, monospace">147</text>
  <text x="24" y="168" fill="#9ece6a" font-size="12" font-family="Consolas, monospace">top languages by repo count</text>
  
          <text x="24" y="188" fill="#a9b1d6" font-size="12" font-family="Consolas, monospace">Java</text>
          <rect x="120" y="176" width="180" height="10" rx="3" fill="#7aa2f7" opacity="0.85"/>
          <text x="310" y="188" fill="#565f89" font-size="11" font-family="Consolas, monospace" text-anchor="end">37</text>
          <text x="24" y="210" fill="#a9b1d6" font-size="12" font-family="Consolas, monospace">JavaScript</text>
          <rect x="120" y="198" width="102" height="10" rx="3" fill="#7aa2f7" opacity="0.85"/>
          <text x="310" y="210" fill="#565f89" font-size="11" font-family="Consolas, monospace" text-anchor="end">21</text>
          <text x="24" y="232" fill="#a9b1d6" font-size="12" font-family="Consolas, monospace">C++</text>
          <rect x="120" y="220" width="68" height="10" rx="3" fill="#7aa2f7" opacity="0.85"/>
          <text x="310" y="232" fill="#565f89" font-size="11" font-family="Consolas, monospace" text-anchor="end">14</text>
          <text x="24" y="254" fill="#a9b1d6" font-size="12" font-family="Consolas, monospace">Python</text>
          <rect x="120" y="242" width="44" height="10" rx="3" fill="#7aa2f7" opacity="0.85"/>
          <text x="310" y="254" fill="#565f89" font-size="11" font-family="Consolas, monospace" text-anchor="end">9</text>
          <text x="24" y="276" fill="#a9b1d6" font-size="12" font-family="Consolas, monospace">Vue</text>
          <rect x="120" y="264" width="44" height="10" rx="3" fill="#7aa2f7" opacity="0.85"/>
          <text x="310" y="276" fill="#565f89" font-size="11" font-family="Consolas, monospace" text-anchor="end">9</text>
  <text x="471" y="268" fill="#565f89" font-size="10" font-family="Consolas, monospace" text-anchor="end">generated locally</text>
</svg>
